<?xml version="1.0" standalone="no"?>
<!DOCTYPE svg PUBLIC "-//W3C//DTD SVG 20010904//EN"
 "http://www.w3.org/TR/2001/REC-SVG-20010904/DTD/svg10.dtd">
<svg version="1.0" xmlns="http://www.w3.org/2000/svg"
 width="1024.000000pt" height="1024.000000pt" viewBox="0 0 1024.000000 1024.000000"
 preserveAspectRatio="xMidYMid meet">

<g transform="translate(0.000000,1024.000000) scale(0.100000,-0.100000)"
fill="#000000" stroke="none">
<path d="M5023 7584 c4 -4 43 -6 87 -5 48 1 80 -2 80 -8 0 -5 -10 -12 -22 -14
-13 -2 78 -6 202 -7 130 -2 208 -6 185 -10 l-40 -7 40 -3 c22 -1 71 -3 108 -3
38 0 63 -4 55 -8 -17 -11 15 -24 38 -15 19 7 66 -3 59 -13 -2 -4 53 -6 122 -4
83 2 131 -1 139 -8 10 -9 14 -9 14 0 0 6 5 11 10 11 6 0 10 -6 10 -13 0 -10
16 -14 52 -16 28 -1 57 -6 65 -12 10 -9 13 -8 13 1 0 14 82 9 175 -10 62 -13
62 -13 109 -4 32 6 38 4 34 -7 -4 -11 3 -13 36 -10 22 2 45 9 49 15 6 8 10 8
14 -1 6 -17 40 -17 45 -1 3 9 10 8 22 -5 11 -11 26 -15 38 -12 10 4 25 2 32
-4 9 -8 22 -8 46 0 35 13 154 6 174 -9 18 -15 110 2 135 25 12 11 18 24 13 27
-6 3 -12 -1 -16 -9 -8 -21 -25 -19 -21 3 2 9 4 19 5 22 1 3 2 9 1 14 -1 4 11
-2 27 -15 16 -13 27 -27 25 -31 -2 -5 4 -8 14 -8 12 1 -9 27 -66 80 l-84 80
-1015 0 c-558 0 -1012 -3 -1009 -6z m388 -15 c9 -5 -31 -9 -98 -9 -66 0 -113
4 -113 10 0 12 192 11 211 -1z m366 -45 c-3 -3 -12 -4 -19 -1 -8 3 -5 6 6 6
11 1 17 -2 13 -5z m140 -30 c-3 -3 -12 -4 -19 -1 -8 3 -5 6 6 6 11 1 17 -2 13
-5z"/>
<path d="M5308 7533 c6 -2 18 -2 25 0 6 3 1 5 -13 5 -14 0 -19 -2 -12 -5z"/>
<path d="M5368 7533 c7 -3 16 -2 19 1 4 3 -2 6 -13 5 -11 0 -14 -3 -6 -6z"/>
<path d="M7206 7408 c3 -5 10 -6 15 -3 13 9 11 12 -6 12 -8 0 -12 -4 -9 -9z"/>
<path d="M7240 7401 c0 -5 11 -18 25 -29 13 -11 21 -23 17 -27 -4 -5 -1 -5 6
-1 11 6 7 15 -14 37 -30 32 -34 34 -34 20z"/>
<path d="M7206 7378 c3 -5 10 -6 15 -3 13 9 11 12 -6 12 -8 0 -12 -4 -9 -9z"/>
<path d="M7304 7318 c-4 -7 -3 -10 1 -5 5 4 18 -1 29 -10 21 -18 21 -18 2 5
-22 26 -23 26 -32 10z"/>
<path d="M7361 7268 c-1 -17 -68 -18 -1268 -18 -1243 0 -2122 -9 -2013 -21
l55 -6 -70 -3 -70 -3 78 -7 c46 -3 82 -11 86 -19 6 -8 20 -10 45 -6 22 5 36 3
36 -3 0 -6 -5 -12 -12 -14 -9 -3 -9 -6 0 -12 7 -4 12 -2 12 3 0 16 58 13 110
-5 32 -11 46 -12 48 -4 3 7 11 5 23 -6 13 -12 19 -13 19 -4 0 9 7 7 26 -5 21
-13 43 -16 100 -13 48 2 73 0 71 -7 -3 -6 23 -11 66 -13 55 -2 74 -7 87 -22
15 -18 18 -18 33 -3 15 15 18 15 35 0 10 -9 26 -17 36 -17 9 0 27 -7 41 -16
21 -14 24 -14 35 3 8 13 13 14 16 6 8 -18 24 -16 24 2 0 8 5 15 10 15 6 0 10
-7 10 -16 0 -12 5 -14 18 -9 9 5 24 7 32 7 71 -6 116 -14 118 -22 2 -6 21 -10
43 -10 22 0 39 -5 39 -11 0 -8 17 -10 55 -6 32 3 53 2 50 -3 -6 -10 29 -20 60
-17 11 1 47 -2 79 -7 40 -6 65 -5 77 2 11 7 19 8 21 2 2 -6 15 -7 34 -1 21 6
41 4 63 -5 22 -9 38 -11 49 -4 10 5 12 10 5 10 -26 0 -12 15 15 15 15 0 41 4
57 8 22 5 26 5 15 -3 -24 -16 -5 -12 52 11 275 109 540 146 815 114 163 -18
295 -48 443 -100 58 -20 111 -37 118 -37 9 -1 12 -42 13 -167 0 -91 2 -176 3
-189 2 -12 0 -121 -3 -242 l-6 -220 -65 46 c-326 229 -755 278 -1085 125 -226
-105 -381 -259 -500 -496 -95 -187 -130 -349 -127 -579 3 -265 51 -450 169
-651 l24 -40 -25 30 c-14 17 -26 34 -26 38 0 5 -4 5 -10 2 -5 -3 -15 6 -22 20
-8 18 -14 22 -20 13 -6 -11 -8 -11 -8 0 0 10 -5 10 -21 2 -11 -7 -19 -17 -16
-23 3 -8 -10 -12 -37 -13 -22 0 -33 1 -23 3 25 6 21 20 -5 18 -15 -1 -24 -9
-26 -23 -4 -29 -22 -28 -23 1 0 12 -3 17 -5 11 -3 -6 -21 -10 -41 -8 -21 1
-33 0 -27 -4 11 -9 32 -50 37 -77 4 -18 5 -18 16 5 l12 25 -7 -25 c-3 -14 -7
-40 -8 -58 -2 -17 -6 -35 -11 -40 -5 -4 -5 -2 -1 5 3 6 2 15 -4 18 -8 5 -8 11
-1 19 8 10 5 18 -9 31 -20 18 -21 18 -14 0 5 -13 4 -16 -5 -11 -18 11 23 -65
54 -103 15 -17 24 -31 20 -31 -4 0 -2 -7 5 -15 7 -8 17 -12 23 -8 6 3 7 1 3
-5 -9 -15 43 -84 57 -75 5 3 7 1 3 -5 -15 -24 187 -207 319 -289 142 -88 303
-152 445 -178 295 -52 551 -15 814 117 54 27 113 60 131 74 45 34 55 31 55
-20 l0 -43 -77 -45 c-259 -148 -499 -201 -805 -178 -181 13 -302 46 -478 128
-69 32 -210 120 -247 154 -12 12 -27 17 -34 13 -7 -5 -10 -4 -6 2 7 11 -111
120 -125 116 -4 -2 -7 0 -5 5 2 8 -141 182 -151 182 -3 0 2 -8 11 -18 30 -32
18 -37 -15 -6 l-32 29 29 -36 c17 -20 32 -35 35 -33 3 1 11 -1 18 -5 9 -5 6
-15 -13 -35 -14 -15 -25 -29 -25 -32 0 -2 16 -2 34 0 22 3 39 -1 47 -10 6 -7
16 -11 22 -7 5 3 8 2 4 -3 -6 -10 -92 -10 -132 0 -14 4 -25 2 -25 -4 0 -5 9
-10 20 -10 22 0 26 -16 10 -40 -8 -12 -10 -12 -10 5 0 17 -6 20 -45 18 -25 0
-45 3 -45 8 0 5 -8 9 -17 9 -15 0 -15 -1 1 -13 18 -13 34 -103 17 -92 -5 2 -6
16 -3 30 3 16 0 25 -8 25 -7 0 -10 -7 -7 -15 4 -8 2 -17 -4 -20 -5 -4 -7 -11
-4 -16 15 -23 -6 -6 -25 21 -12 16 -16 30 -10 30 6 0 14 -10 19 -22 5 -13 10
-17 14 -11 7 11 -17 42 -34 44 -5 1 -14 2 -19 3 -16 2 -100 128 -93 139 3 6 2
7 -4 4 -19 -12 -137 221 -187 369 -56 165 -82 297 -101 512 -6 69 10 337 26
447 36 238 144 525 274 725 25 40 40 68 33 64 -7 -5 17 26 55 68 37 41 67 78
67 80 0 11 188 189 240 228 55 41 78 69 46 57 -9 -4 -198 -7 -419 -7 l-402 -1
-60 64 c-33 35 -71 77 -85 93 l-25 29 -5 -1121 c-4 -855 -8 -1124 -17 -1135
-7 -8 -10 -26 -7 -40 4 -21 3 -20 -7 4 -8 20 -8 31 0 41 9 10 8 15 -4 20 -10
4 -15 -1 -16 -17 -1 -14 -3 -16 -6 -6 -3 13 -12 15 -46 8 -48 -8 -58 -4 -34
14 16 11 16 13 -4 25 -19 12 -20 11 -14 -7 3 -10 1 -22 -5 -26 -20 -13 2 -25
45 -25 24 0 46 -3 48 -7 3 -5 -21 -6 -54 -5 -58 4 -59 4 -59 34 0 25 -3 29
-17 23 -10 -4 -35 -9 -57 -12 -38 -6 -38 -6 -15 -19 l24 -13 -22 -1 c-13 0
-23 -4 -23 -9 0 -5 -12 -23 -27 -40 -15 -16 -28 -40 -30 -53 -2 -17 -1 -19 6
-9 7 10 9 7 8 -12 -2 -19 -5 -23 -15 -15 -15 13 -20 9 -25 -18 -1 -10 -15 -45
-30 -78 -15 -32 -24 -63 -20 -70 3 -6 3 -8 -2 -4 -10 10 -98 -119 -90 -132 3
-5 0 -8 -7 -5 -7 2 -33 -19 -58 -49 -52 -61 -180 -164 -260 -208 -122 -68
-294 -121 -425 -132 -33 -3 -144 -8 -247 -12 -156 -5 -188 -4 -188 7 0 8 -1
97 -3 199 l-2 185 125 1 c258 1 402 29 540 106 51 28 161 113 168 130 2 4 21
29 43 55 45 54 79 123 104 208 25 87 30 276 27 1038 l-3 667 -57 -49 c-138
-119 -231 -198 -272 -231 -24 -19 -48 -39 -54 -45 -16 -14 -137 -118 -166
-142 -14 -12 -46 -38 -71 -59 -25 -22 -64 -54 -87 -72 -51 -42 -77 -64 -125
-108 -21 -20 -66 -59 -100 -87 -34 -28 -72 -63 -84 -76 -13 -13 -23 -20 -23
-16 0 5 -6 0 -14 -11 -11 -14 -11 -21 -3 -27 9 -5 5 -13 -10 -26 -13 -11 -23
-26 -23 -35 0 -20 -19 -21 -26 -1 -4 9 4 23 17 35 29 24 18 26 -17 4 -18 -12
-23 -22 -19 -38 5 -15 4 -17 -3 -7 -5 7 -15 10 -21 6 -9 -5 -9 -11 1 -22 11
-14 10 -15 -10 -9 -23 8 -32 -8 -9 -18 6 -3 -1 -4 -16 -1 -21 4 -27 2 -21 -6
5 -9 2 -10 -10 -6 -14 6 -15 3 -6 -13 6 -12 7 -20 1 -20 -5 0 -11 6 -13 12 -3
8 -19 1 -47 -21 -30 -24 -39 -36 -31 -46 10 -12 4 -25 -12 -25 -5 0 -7 4 -4 9
4 5 -2 7 -13 4 -17 -4 -17 -6 4 -29 26 -28 45 -31 45 -8 0 9 6 14 13 12 6 -3
12 -17 12 -31 1 -15 7 -33 14 -39 10 -11 15 -9 27 6 17 24 18 36 2 36 -13 0
-42 50 -34 57 11 11 74 -69 80 -101 5 -26 12 -36 26 -36 16 0 17 4 9 35 -6 19
-7 40 -3 46 4 6 1 15 -6 19 -8 5 -10 15 -5 26 6 17 9 15 23 -13 9 -18 23 -33
31 -33 13 1 13 2 -1 11 -25 14 -22 28 6 35 16 4 36 -1 55 -12 24 -14 33 -16
43 -6 9 9 6 12 -15 12 -15 0 -27 4 -27 9 0 6 18 9 40 8 22 -2 40 1 40 5 0 4 7
8 15 8 8 0 15 5 15 10 0 6 -7 10 -15 10 -8 0 -15 -4 -15 -9 0 -12 -129 -21
-157 -10 -16 6 -23 17 -23 34 0 14 5 25 10 25 6 0 10 -11 10 -25 0 -16 6 -25
15 -25 11 0 15 11 15 40 0 22 3 40 8 40 4 0 15 17 24 38 9 20 23 46 32 57 14
18 15 18 16 3 0 -28 20 -21 20 7 0 14 5 25 11 25 7 0 9 -10 7 -25 -6 -31 6
-35 60 -20 24 8 44 9 48 4 3 -5 -4 -9 -15 -9 -12 0 -21 -4 -21 -10 0 -5 -7
-10 -15 -10 -8 0 -15 -9 -15 -20 0 -12 7 -20 16 -20 10 0 14 -6 10 -15 -3 -9
0 -15 9 -15 8 0 15 -7 15 -15 0 -8 -7 -15 -15 -15 -27 0 -16 -18 16 -25 21 -5
27 -10 19 -15 -10 -6 -9 -9 1 -16 7 -4 14 -3 17 4 5 15 32 16 32 2 0 -5 -7
-10 -15 -10 -8 0 -15 -7 -15 -16 0 -9 -8 -23 -17 -30 -17 -13 -17 -13 0 -14 9
0 17 5 17 10 0 14 27 12 34 -2 3 -7 4 1 1 17 -4 21 -3 26 4 16 8 -12 15 -13
35 -3 31 14 25 42 -10 42 -15 0 -24 6 -24 15 0 8 -7 15 -15 15 -8 0 -15 4 -15
9 0 10 41 23 49 16 2 -3 -1 -5 -7 -5 -7 0 -12 -4 -12 -10 0 -5 24 -10 53 -10
33 0 47 -3 38 -9 -23 -15 -2 -33 32 -26 l32 6 -28 -16 c-15 -9 -32 -13 -37
-10 -6 3 -10 2 -10 -4 0 -5 5 -13 10 -16 13 -8 13 -25 0 -25 -5 0 -10 7 -10
15 0 8 -6 15 -12 15 -16 0 -47 -20 -32 -20 7 0 14 -12 17 -27 4 -22 -1 -34
-26 -59 -55 -52 -111 -91 -126 -86 -8 3 -11 0 -7 -6 7 -12 -63 -74 -76 -66 -4
3 -8 -2 -8 -10 0 -16 -56 -63 -71 -59 -5 2 -9 -3 -9 -10 0 -8 -16 -27 -36 -43
-19 -16 -46 -38 -58 -49 -13 -11 -41 -33 -61 -50 -21 -16 -43 -35 -49 -40 -6
-6 -36 -30 -66 -55 -30 -25 -77 -66 -105 -93 -41 -39 -47 -49 -35 -57 8 -6 24
-8 34 -6 11 3 25 1 30 -3 20 -16 74 -23 81 -11 6 9 10 9 16 -1 7 -11 12 -12
28 -2 11 7 22 9 25 4 6 -9 36 -8 54 3 6 4 12 3 12 -1 0 -7 212 -13 642 -17 53
-1 100 -4 104 -8 4 -5 1 -8 -7 -9 -8 0 -6 -4 6 -9 11 -5 -223 -9 -552 -9
l-571 -1 25 -97 c14 -54 30 -99 34 -101 4 -2 5 -10 2 -18 -3 -8 0 -14 6 -14 6
0 8 -7 5 -15 -4 -10 0 -15 12 -15 12 0 15 -3 8 -8 -7 -4 -8 -16 -4 -27 7 -19
7 -19 15 4 6 21 9 22 17 7 5 -9 13 -14 19 -11 5 3 6 -1 3 -10 -6 -14 -8 -14
-21 2 -14 17 -14 17 -10 -5 3 -12 1 -20 -4 -16 -11 6 -12 -9 -2 -20 4 -3 8
-12 9 -19 3 -25 58 -155 105 -248 219 -440 583 -859 964 -1111 405 -268 805
-422 1290 -497 154 -24 494 -30 681 -11 507 48 960 207 1379 483 321 212 579
475 845 862 205 298 373 764 436 1210 25 179 26 673 1 850 -78 550 -267 1011
-585 1428 -41 54 -85 105 -97 115 -12 10 -24 24 -28 32 -4 12 -6 11 -6 -2z
m-2404 -214 c-3 -3 -12 -4 -19 -1 -8 3 -5 6 6 6 11 1 17 -2 13 -5z m286 -513
c14 -2 6 -16 -21 -35 -27 -20 -27 -20 -9 0 20 24 23 41 4 25 -10 -8 -14 -7
-14 3 0 8 7 12 16 11 9 -2 19 -4 24 -4z m-50 -75 c-15 -24 -47 -56 -56 -56 -6
0 -3 8 6 18 11 12 13 22 7 32 -8 13 -12 12 -25 -5 -14 -19 -15 -19 -8 -1 5 14
3 17 -7 11 -8 -5 -11 -4 -7 2 3 5 26 9 51 9 28 0 42 -4 39 -10z m-2159 -865
c3 -5 -2 -8 -12 -7 -14 1 -16 -6 -14 -36 2 -23 -1 -38 -7 -38 -12 0 -15 48 -5
74 7 17 29 21 38 7z m163 3 c-3 -3 -12 -4 -19 -1 -8 3 -5 6 6 6 11 1 17 -2 13
-5z m103 -8 c0 -3 -4 -8 -10 -11 -5 -3 -10 -1 -10 4 0 6 5 11 10 11 6 0 10 -2
10 -4z m145 -7 c11 -17 2 -18 -19 -3 -17 12 -17 14 -4 14 9 0 20 -5 23 -11z
m-478 -21 c-3 -8 -6 -5 -6 6 -1 11 2 17 5 13 3 -3 4 -12 1 -19z m240 0 c-3 -8
-6 -5 -6 6 -1 11 2 17 5 13 3 -3 4 -12 1 -19z m183 3 c0 -5 -9 -11 -19 -14
-14 -3 -18 -1 -14 9 6 15 33 19 33 5z m86 -15 c-29 -22 -66 -25 -66 -4 0 6 11
7 24 4 15 -4 28 0 36 9 7 8 18 15 24 15 6 0 -2 -11 -18 -24z m-436 -18 c0 -18
-2 -20 -9 -8 -6 8 -7 18 -5 22 9 14 14 9 14 -14z m225 13 c3 -5 1 -12 -5 -16
-5 -3 -10 1 -10 9 0 18 6 21 15 7z m128 -21 c-6 -21 -24 -23 -30 -3 -2 6 4 13
14 16 10 3 19 5 20 6 0 0 -1 -8 -4 -19z m-168 -18 c-3 -3 -11 0 -18 7 -9 10
-8 11 6 5 10 -3 15 -9 12 -12z m84 -14 c-13 -13 -25 -20 -27 -16 -5 11 21 37
37 38 9 0 5 -8 -10 -22z m64 2 c21 -25 21 -26 3 -33 -10 -4 -13 -1 -9 9 3 7 0
14 -6 14 -7 0 -14 -7 -17 -15 -4 -8 -12 -15 -20 -15 -8 0 -14 -4 -14 -10 0 -5
5 -10 12 -10 6 0 9 -2 6 -5 -3 -3 -13 -3 -22 1 -14 5 -13 10 9 36 14 16 25 34
25 39 0 15 14 10 33 -11z m51 6 c-10 -8 -21 -12 -24 -10 -5 6 21 24 34 24 6 0
1 -6 -10 -14z m-424 -41 c12 -14 11 -18 -1 -26 -8 -5 -18 -9 -24 -9 -13 0 -36
50 -29 61 6 11 35 -4 54 -26z m120 -15 c0 -5 -5 -10 -11 -10 -5 0 -7 5 -4 10
3 6 8 10 11 10 2 0 4 -4 4 -10z m133 -16 c9 -4 17 -10 17 -15 0 -16 -20 -10
-43 12 -12 12 -15 19 -7 15 8 -3 23 -9 33 -12z m-53 -26 c0 -13 -23 -5 -28 10
-2 7 2 10 12 6 9 -3 16 -11 16 -16z m94 13 c3 -5 -1 -14 -8 -20 -12 -10 -13
-8 -9 8 6 23 9 25 17 12z m-45 -34 c15 -19 2 -29 -15 -12 -8 7 -14 16 -14 19
0 11 17 6 29 -7z m-649 -7 c0 -5 -7 -10 -15 -10 -8 0 -15 5 -15 10 0 6 7 10
15 10 8 0 15 -4 15 -10z m-40 -20 c0 -5 -5 -10 -11 -10 -5 0 -7 5 -4 10 3 6 8
10 11 10 2 0 4 -4 4 -10z m90 -12 c0 6 7 12 15 12 8 0 15 -4 15 -10 0 -5 -7
-10 -15 -10 -8 0 -15 -8 -16 -17 0 -15 -2 -15 -9 2 -12 27 -12 43 0 25 6 -10
10 -11 10 -2z m546 -24 c-11 -8 -25 -14 -30 -13 -6 0 -1 5 12 11 12 6 22 16
22 21 0 6 3 7 7 3 5 -4 -1 -14 -11 -22z m1155 -587 c-13 -13 -26 -3 -16 12 3
6 11 8 17 5 6 -4 6 -10 -1 -17z m146 -79 c-3 -8 -6 -5 -6 6 -1 11 2 17 5 13 3
-3 4 -12 1 -19z m19 -36 c-11 -10 -15 4 -8 28 l7 25 3 -23 c2 -13 1 -26 -2
-30z m914 -2 c0 -11 -4 -20 -10 -20 -5 0 -10 9 -10 20 0 11 5 20 10 20 6 0 10
-9 10 -20z m177 5 c9 -24 -1 -27 -15 -5 -8 13 -8 20 -2 20 6 0 13 -7 17 -15z
m-97 -15 c0 -11 -4 -20 -10 -20 -5 0 -10 9 -10 20 0 11 5 20 10 20 6 0 10 -9
10 -20z m-2011 -76 c10 -9 -55 -3 -69 6 -10 6 -2 7 25 3 22 -3 42 -7 44 -9z
m126 5 c11 -16 1 -19 -13 -3 -7 8 -8 14 -3 14 5 0 13 -5 16 -11z m45 -4 c10
-12 10 -15 -2 -15 -8 0 -15 7 -15 15 0 8 1 15 2 15 2 0 8 -7 15 -15z m-103 -1
c-3 -3 -12 -4 -19 -1 -8 3 -5 6 6 6 11 1 17 -2 13 -5z m2184 -11 c13 -16 12
-17 -3 -4 -10 7 -18 15 -18 17 0 8 8 3 21 -13z m30 -40 c13 -16 12 -17 -3 -4
-10 7 -18 15 -18 17 0 8 8 3 21 -13z m-326 -41 c-3 -3 -11 0 -18 7 -9 10 -8
11 6 5 10 -3 15 -9 12 -12z m139 -130 c3 -5 -1 -9 -9 -9 -8 0 -12 4 -9 9 3 4
7 8 9 8 2 0 6 -4 9 -8z m-3199 -42 c3 -5 1 -10 -4 -10 -6 0 -11 5 -11 10 0 6
2 10 4 10 3 0 8 -4 11 -10z m77 -86 c-3 -17 -8 -22 -15 -15 -7 7 -6 15 3 26
17 20 18 19 12 -11z m268 7 c9 -11 60 -12 60 -1 0 6 4 9 10 5 5 -3 7 -12 4
-20 -4 -10 -12 -12 -29 -5 -16 6 -27 6 -30 -1 -10 -15 -275 -10 -275 6 0 6 14
16 31 21 34 10 221 6 229 -5z m-310 -21 c0 -11 -7 -20 -15 -20 -13 0 -14 4 -5
20 6 11 13 20 15 20 3 0 5 -9 5 -20z m2915 -60 c4 -6 -7 -10 -25 -10 -18 0
-29 4 -25 10 3 6 15 10 25 10 10 0 22 -4 25 -10z m-15 -40 c0 -5 -4 -10 -10
-10 -5 0 -10 5 -10 10 0 6 5 10 10 10 6 0 10 -4 10 -10z m-9 -97 c13 -16 12
-17 -3 -4 -10 7 -18 15 -18 17 0 8 8 3 21 -13z"/>
<path d="M5160 6459 c0 -5 5 -7 10 -4 6 3 10 8 10 11 0 2 -4 4 -10 4 -5 0 -10
-5 -10 -11z"/>
<path d="M5085 7030 c3 -5 8 -10 11 -10 2 0 4 5 4 10 0 6 -5 10 -11 10 -5 0
-7 -4 -4 -10z"/>
<path d="M5784 6964 l-29 -26 30 16 c17 8 37 20 45 25 13 9 13 11 -1 11 -9 0
-29 -12 -45 -26z"/>
<path d="M3825 6922 c-11 -15 -19 -31 -17 -35 1 -5 -2 -6 -7 -3 -5 4 -22 -6
-38 -20 -15 -15 -22 -24 -15 -20 6 4 12 2 12 -3 0 -6 -7 -11 -15 -11 -8 0 -15
-5 -15 -11 0 -6 6 -9 13 -6 8 3 20 2 26 -3 9 -5 4 -7 -13 -7 -49 0 -49 -20 -1
-29 17 -3 31 1 39 10 21 29 41 1 47 -66 4 -44 6 -20 7 85 1 81 1 147 0 147 -2
0 -12 -13 -23 -28z"/>
<path d="M5720 6940 c-8 -5 -10 -10 -5 -10 6 0 17 5 25 10 8 5 11 10 5 10 -5
0 -17 -5 -25 -10z"/>
<path d="M3650 6736 c0 -2 7 -7 16 -10 8 -3 12 -2 9 4 -6 10 -25 14 -25 6z"/>
<path d="M3843 6600 c0 -25 2 -35 4 -22 2 12 2 32 0 45 -2 12 -4 2 -4 -23z"/>
<path d="M2785 5450 c-3 -5 -1 -10 4 -10 6 0 11 5 11 10 0 6 -2 10 -4 10 -3 0
-8 -4 -11 -10z"/>
<path d="M2880 5410 c0 -5 7 -10 15 -10 8 0 15 5 15 10 0 6 -7 10 -15 10 -8 0
-15 -4 -15 -10z"/>
<path d="M2930 5340 c0 -5 7 -10 15 -10 8 0 15 5 15 10 0 6 -7 10 -15 10 -8 0
-15 -4 -15 -10z"/>
<path d="M2872 5323 c-6 -2 -10 -8 -7 -13 6 -10 45 -1 45 11 0 10 -17 11 -38
2z"/>
<path d="M2930 5300 c0 -5 7 -10 15 -10 8 0 15 5 15 10 0 6 -7 10 -15 10 -8 0
-15 -4 -15 -10z"/>
<path d="M2780 5290 c-13 -8 -12 -10 3 -10 9 0 17 5 17 10 0 12 -1 12 -20 0z"/>
<path d="M2818 5283 c7 -3 16 -2 19 1 4 3 -2 6 -13 5 -11 0 -14 -3 -6 -6z"/>
<path d="M2873 5283 c9 -2 23 -2 30 0 6 3 -1 5 -18 5 -16 0 -22 -2 -12 -5z"/>
<path d="M2845 5259 c-10 -15 3 -25 16 -12 7 7 7 13 1 17 -6 3 -14 1 -17 -5z"/>
<path d="M2800 5252 c0 -5 -11 -14 -25 -20 -28 -13 -33 -32 -9 -32 12 0 15 -7
12 -25 -4 -17 -1 -25 8 -25 8 0 14 10 15 23 0 12 2 37 3 55 2 17 2 32 0 32 -2
0 -4 -4 -4 -8z"/>
<path d="M3040 5224 c0 -8 5 -12 10 -9 6 3 10 10 10 16 0 5 -4 9 -10 9 -5 0
-10 -7 -10 -16z"/>
<path d="M2568 5193 c7 -3 16 -2 19 1 4 3 -2 6 -13 5 -11 0 -14 -3 -6 -6z"/>
<path d="M2628 5193 c-10 -2 -18 -9 -18 -14 0 -13 28 -11 32 2 2 7 15 1 32
-14 25 -24 26 -26 9 -36 -19 -11 -5 -15 21 -5 28 11 18 39 -19 57 -20 9 -37
16 -38 16 -1 -1 -10 -3 -19 -6z"/>
<path d="M2912 5180 c-18 -30 -14 -36 8 -12 21 22 25 32 12 32 -4 0 -13 -9
-20 -20z"/>
<path d="M2990 5185 c-7 -8 -19 -15 -26 -15 -8 0 -14 -8 -14 -17 0 -14 3 -14
23 4 12 11 31 25 42 31 16 9 17 11 4 12 -9 0 -22 -7 -29 -15z"/>
<path d="M2735 5130 c-3 -5 1 -10 9 -10 9 0 16 5 16 10 0 6 -4 10 -9 10 -6 0
-13 -4 -16 -10z"/>
<path d="M2859 5087 c7 -7 14 -8 21 -1 6 6 2 10 -12 11 -16 2 -18 -1 -9 -10z"/>
<path d="M2808 5063 c7 -3 16 -2 19 1 4 3 -2 6 -13 5 -11 0 -14 -3 -6 -6z"/>
<path d="M2720 4959 c0 -5 5 -7 10 -4 6 3 10 8 10 11 0 2 -4 4 -10 4 -5 0 -10
-5 -10 -11z"/>
<path d="M2191 4944 c0 -11 3 -14 6 -6 3 7 2 16 -1 19 -3 4 -6 -2 -5 -13z"/>
<path d="M2201 4834 c0 -11 3 -14 6 -6 3 7 2 16 -1 19 -3 4 -6 -2 -5 -13z"/>
<path d="M2221 4834 c0 -11 3 -14 6 -6 3 7 2 16 -1 19 -3 4 -6 -2 -5 -13z"/>
<path d="M4328 4803 c7 -3 16 -2 19 1 4 3 -2 6 -13 5 -11 0 -14 -3 -6 -6z"/>
<path d="M4273 4783 c9 -2 25 -2 35 0 9 3 1 5 -18 5 -19 0 -27 -2 -17 -5z"/>
<path d="M2212 4760 c0 -14 2 -19 5 -12 2 6 2 18 0 25 -3 6 -5 1 -5 -13z"/>
<path d="M5590 4755 c0 -8 4 -15 10 -15 5 0 7 7 4 15 -4 8 -8 15 -10 15 -2 0
-4 -7 -4 -15z"/>
<path d="M4229 4743 c0 -5 -2 -18 -5 -31 -2 -13 0 -21 5 -18 8 5 13 56 5 56
-2 0 -4 -3 -5 -7z"/>
<path d="M5610 4723 c0 -8 -7 -10 -17 -6 -16 6 -16 5 -4 -10 7 -9 17 -14 22
-12 4 3 15 -7 23 -22 8 -15 15 -22 16 -16 0 7 -9 27 -20 45 -11 18 -20 28 -20
21z"/>
<path d="M2220 4699 c0 -11 5 -17 10 -14 6 3 10 13 10 21 0 8 -4 14 -10 14 -5
0 -10 -9 -10 -21z"/>
<path d="M5520 4689 c0 -5 5 -7 10 -4 6 3 10 8 10 11 0 2 -4 4 -10 4 -5 0 -10
-5 -10 -11z"/>
<path d="M5425 4680 c-7 -12 2 -12 30 0 19 8 19 9 -2 9 -12 1 -25 -3 -28 -9z"/>
<path d="M2230 4644 c0 -8 5 -12 10 -9 6 4 8 11 5 16 -9 14 -15 11 -15 -7z"/>
<path d="M2261 4614 c0 -11 3 -14 6 -6 3 7 2 16 -1 19 -3 4 -6 -2 -5 -13z"/>
<path d="M2242 4610 c0 -8 4 -26 8 -40 6 -20 8 -21 8 -5 0 11 -3 29 -8 40 -5
12 -8 14 -8 5z"/>
<path d="M2291 4604 c0 -11 3 -14 6 -6 3 7 2 16 -1 19 -3 4 -6 -2 -5 -13z"/>
<path d="M5336 4597 c3 -10 9 -15 12 -12 3 3 0 11 -7 18 -10 9 -11 8 -5 -6z"/>
<path d="M2314 4588 c3 -10 1 -18 -4 -18 -6 0 -10 -7 -10 -16 0 -14 1 -14 16
0 12 12 13 20 4 33 -11 17 -11 17 -6 1z"/>
<path d="M3276 4542 c-2 -4 12 -6 32 -4 56 5 62 10 15 11 -23 1 -44 -3 -47 -7z"/>
<path d="M5300 4429 c0 -5 5 -7 10 -4 6 3 10 8 10 11 0 2 -4 4 -10 4 -5 0 -10
-5 -10 -11z"/>
<path d="M5330 4391 c0 -5 7 -12 16 -15 14 -5 15 -4 4 9 -14 17 -20 19 -20 6z"/>
<path d="M5379 4258 c15 -20 41 -24 41 -7 0 5 -5 7 -10 4 -6 -4 -19 -1 -28 7
-15 12 -16 11 -3 -4z"/>
<path d="M5135 4220 c-3 -5 1 -20 9 -32 9 -12 16 -17 16 -11 0 7 -5 15 -11 18
-6 4 -8 13 -5 21 6 16 0 19 -9 4z"/>
<path d="M5200 4156 c0 -9 32 -36 42 -36 6 0 1 9 -12 20 -23 20 -30 24 -30 16z"/>
<path d="M2920 3980 l-45 -7 55 -1 c30 0 64 3 75 8 17 7 15 8 -10 8 -16 -1
-50 -4 -75 -8z"/>
<path d="M3128 3973 c7 -3 16 -2 19 1 4 3 -2 6 -13 5 -11 0 -14 -3 -6 -6z"/>
</g>
</svg>
